<svg width="22" height="24" viewBox="0 0 22 24" fill="none" xmlns="http://www.w3.org/2000/svg">
<path d="M20.0799 7.814C20.0356 7.31738 19.8066 6.85546 19.4381 6.51958C19.0696 6.18369 18.5885 5.99828 18.0899 6H15.9999V5C15.9999 2.243 13.7569 0 10.9999 0C8.24295 0 5.99995 2.243 5.99995 5V6H3.90995C3.41129 5.99805 2.93007 6.18338 2.56155 6.51931C2.19302 6.85524 1.96404 7.31729 1.91995 7.814L0.656946 21.267C0.624834 21.6133 0.665153 21.9625 0.775337 22.2923C0.885521 22.6222 1.06316 22.9255 1.29695 23.183C1.76995 23.703 2.44395 24 3.14595 24H18.8509C19.1987 23.9994 19.5425 23.9263 19.8605 23.7855C20.1784 23.6447 20.4636 23.4391 20.6977 23.182C20.9319 22.9249 21.1099 22.6219 21.2205 22.2921C21.3311 21.9624 21.3718 21.6133 21.3399 21.267L20.0799 7.814ZM7.99995 5C7.99995 3.345 9.34495 2 10.9999 2C12.6539 2 13.9999 3.345 13.9999 5V6H7.99995V5ZM5.99995 8V10H7.99995V8H13.9999V10H15.9999V8H18.0899L18.9329 17H3.06695L3.90995 8H5.99995ZM19.2219 21.837C19.1752 21.8886 19.1181 21.9298 19.0543 21.9579C18.9906 21.986 18.9216 22.0003 18.8519 22H3.14795C3.07828 22.0003 3.00933 21.986 2.94558 21.9579C2.88183 21.9298 2.82471 21.8886 2.77795 21.837C2.73081 21.7856 2.69505 21.7248 2.67299 21.6587C2.65094 21.5925 2.64308 21.5224 2.64995 21.453L2.87995 19H19.1199L19.3499 21.453C19.3569 21.5224 19.349 21.5925 19.327 21.6587C19.3049 21.7249 19.2691 21.7856 19.2219 21.837Z" fill="#1F1F24"/>
</svg>
