<svg width="24" height="24" viewBox="0 0 24 24" fill="none" xmlns="http://www.w3.org/2000/svg">
<path d="M12 13C13.7239 13 15.3772 12.3152 16.5962 11.0962C17.8152 9.87721 18.5 8.22391 18.5 6.5C18.5 4.77609 17.8152 3.12279 16.5962 1.90381C15.3772 0.684819 13.7239 0 12 0C10.2761 0 8.62279 0.684819 7.40381 1.90381C6.18482 3.12279 5.5 4.77609 5.5 6.5C5.5 8.22391 6.18482 9.87721 7.40381 11.0962C8.62279 12.3152 10.2761 13 12 13ZM12 2C14.482 2 16.5 4.019 16.5 6.5C16.5 8.982 14.482 11 12 11C10.8069 10.9987 9.66311 10.5241 8.81948 9.68052C7.97585 8.83689 7.50132 7.69307 7.5 6.5C7.5 4.019 9.518 2 12 2ZM17.218 15H6.782C3.037 15 0 18.492 0 22.8V23C0 23.2652 0.105357 23.5196 0.292893 23.7071C0.48043 23.8946 0.734784 24 1 24H23C23.2652 24 23.5196 23.8946 23.7071 23.7071C23.8946 23.5196 24 23.2652 24 23V22.8C24 18.492 20.963 15 17.218 15ZM2.046 22C2.368 19.179 4.37 17 6.783 17H17.218C19.631 17 21.633 19.179 21.956 22H2.046Z" fill="#1F1F24"/>
</svg>
